<svg width="32" height="41" viewBox="0 0 32 41" fill="none" xmlns="http://www.w3.org/2000/svg">
<path d="M1.20648e-06 16.0339C7.65618e-07 26.1197 6.87899 32.0161 16.1019 32.0161C25.3248 32.0161 32 25.8611 32 16.0339C32 6.2584 25.3248 -2.9178e-07 16.1019 -6.94927e-07C6.87899 -1.09807e-06 1.64961e-06 5.89634 1.20648e-06 16.0339ZM6.57325 16.0339C6.57325 10.2927 10.3949 7.44801 16.1529 7.44801C21.1975 7.44801 25.3758 10.3445 25.3758 16.0339C25.3758 21.7234 21.1975 24.6198 16.1529 24.6198C10.3949 24.6198 6.57325 21.7751 6.57325 16.0339Z" fill="black"/>
<path d="M31.949 41L31.949 33.914L0.713379 33.914L0.713379 41L31.949 41Z" fill="black"/>
</svg>
